<svg xmlns="http://www.w3.org/2000/svg" width="256" height="256"><path d="M0 128v128l128.3-.2 128.2-.3.3-127.8L257 0H0v128m.5.5c0 70.4.1 99 .3 63.7v-128c-.2-35-.3-6.1-.3 64.3" fill="none"/><path fill-opacity=".2" d="M115 12.5c-6.9 6.9-13 12.5-13.5 12.5-.6 0-7.3-2-15-4.3a633 633 0 0 0-16.6-5c-2.5-.6-2.6-.4-5.9 10.3l-3.3 11H37l-.2 17.8-.3 17.7-16.7 9c-9.2 5-17 9.3-17.3 9.7-.4.4 2 5.6 5.2 11.7l5.8 11-7 7-7 7.1 12.8 12.8c7 7 12.7 13.2 12.7 13.7 0 .6-2 7.3-4.3 15a633 633 0 0 0-5 16.6c-.6 2.5-.4 2.6 10.3 5.9l11 3.3V219h33.6l8.3 15.5c4.5 8.5 8.5 15.6 9 15.9a62 62 0 0 0 11.5-5.6l10.8-6 9 8.8 8.8 8.9 12.8-12.8c7-7 13.2-12.7 13.7-12.7.6 0 7.3 2 15 4.3 20.9 6.5 19 6.4 20.4 1.4a773 773 0 0 1 3.3-11l2-6.7H219l.2-19.7.3-19.7 13.2-7.1 13.9-7.7c.3-.4-1.5-4.6-4.1-9.3l-4.8-8.7 9.9-9.9a50.3 50.3 0 0 0 9.1-10.5c-.4-.4-.7-.3-.7.2s-5.6-4.7-12.5-11.6-12.5-13-12.5-13.5c0-.6 2-7.3 4.3-15a633 633 0 0 0 5-16.6c.6-2.5.4-2.6-10.3-5.9l-11-3.3V37h-40.8l-6.3-11.8-8.6-16-2.5-4.2-8.8 4.8-8.9 4.7-7.3-7.3c-4-4-7.6-7.2-7.8-7.2-.3 0-6.1 5.6-13 12.5m-38.6 36c-1 .7-3 1.1-4.2.8-1.9-.4-2.9.6-2 2.1.2.2-.6 1.5-1.7 2.7l-2 2.4 2-1.6c1.1-1 4.2-3 7-4.8 2.7-1.7 4.4-3.1 3.9-3.1-.6 0-1.9.6-3 1.4m46.5 6.8c-4.3 10.2-4.4 10.8-1.7 10.7 1.3 0 1.7-.3 1-.6-1.7-.7-1.5-3 .4-3.7 2.4-1 2.7-.7 1.4 1-1.1 1.3-1 1.3 1.4.4 3.6-1.3 3.6-1.3 3.6 1 0 1.1.4 2 1 2 1 0 .3-2.7-1.1-4.6-.5-.6-.6-1.3-.4-1.6.3-.3-.6-.4-2-.3-2.8.4-3.2-1-1.1-3.8 1.6-2.1 2.6-2.2 2.6-.2 0 .8.7 1.5 1.6 1.5 1.1 0 1.5.6 1.1 2-.3 1.1-.1 2.3.4 2.6.5.3 1 1.5 1 2.7 0 1.2.2 1.8.5 1.2a39 39 0 0 0-.9-8.5c-1.1-6.9-1.4-7.5-3.7-7.8-2.2-.2-2.8.5-5.1 6M70.5 51c-.3.6-.2 1 .4 1s1.3-.5 1.6-1c.3-.6.2-1-.4-1s-1.3.5-1.6 1m32.3-.3c-1.4.4-1.5.9-.6 3.6.6 1.8 1.7 3.6 2.5 4 2.1 1.3 1.5 2.2-1.7 2.4-1.8.1-2.8-.2-2.5-.7.4-.6 0-1-.9-1-.8 0-1.7-1.3-2.1-3-.6-2.6-.8-2.8-2.1-1.5-1.3 1.2-1.2 2.3.4 8.7C97 68 98 70.5 99 70.5c.8 0 1.6-.9 1.8-2l.4-2-1.6 2c-2 2.6-2 .7 0-3.2 2.1-4.5 4.3-5 5-1.3.7 3.4 2.1 4.7 3.5 3.3.6-.6.2-3.9-1.2-8.9l-2.3-8-1.8.3m26.3.9c0 1.1.3 1.4.6.6.3-.7.2-1.6-.1-2-.3-.3-.6.3-.5 1.4m64 11c0 .5 2.4 3.4 5.4 6.4s5.5 4.9 5.5 4.2c0-.7-.4-1.2-1-1.2-.4 0-.6-.8-.3-1.8.4-1.8-2.8-4.8-5.9-5.4-.7-.2-1.8-1-2.5-1.8s-1.3-1-1.3-.5M77 64.2c0 .6-.3.8-.7.5-1.3-1.4-3.3 1.6-3.3 5 0 6.7 4.7 12.1 9.5 10.9 3.4-.9 5.5-8.6 2.3-8.6-.6 0-.8 1.3-.6 2.8.3 2.4 0 2.8-1.7 2.7-2.4-.2-6.5-5.9-6.5-9a3 3 0 0 1 2-3c2.5-.8 4 .3 2.1 1.4-.7.5-1 1.1-.4 1.4.5.3 1.5.1 2.3-.4 1.3-.8 1.1-1.3-.9-3-2.6-2.2-4.1-2.4-4.1-.7m20-.2c0 .6.5 1 1 1s1-.5 1-1-.5-1-1-1-1 .5-1 1m9 1c0 .5.5 1.2 1 1.5.6.3 1 0 1-1s-.5-1.5-1-1.5-1 .4-1 1m90 .3c0 .2 1.4 1.6 3 3.2 2 2 3 2.4 3 1.4 0-.8-1.4-2.3-3-3.2-1.6-1-3-1.6-3-1.4M74 71.7c0 1.2.5 2.5 1 2.8 1.8 1.1 2 .2.5-2.5-1.4-2.4-1.4-2.4-1.5-.3M55.4 85.4c-.8 2 1.4 5.8 2.8 5 .7-.5 1-.2.6.8s.9 3.4 3.2 6.2c3.6 4.4 4 4.5 5 2.7.7-1.4.7-2.2-.2-2.7-.7-.4-.8-.3-.4.4s.3 1.2-.2 1.2-1.3-.7-1.6-1.6c-.8-2.2-.8-2.4.8-2.4.8 0 1.7-.7 2-1.6.4-1 1.3-1.3 2.5-1 1 .4 2.2.3 2.4-.2.3-.4-.6-.7-2.1-.7s-3.2-.3-3.9-.7c-.7-.6-1.4-.2-1.8 1.2-.9 2.7-2.5 2.1-4.8-1.9l-2-3.2 2.8 1.3c2.2 1 2.8 1 3.6-.3.8-1.2 1.1-1.2 2.2.3 1 1.1 1.8 1.4 2.8.7.8-.5 1.2-.9.9-.9l-5.8-2c-3-1.1-5-1.6-4.7-1 .3.5-.1 1-1 1s-1.3-.4-1-1c.3-.5.1-1-.5-1s-1.3.6-1.6 1.4m-9.8 22.9c-1.4 4.3-1.3 8.6 0 9.1 2.1.8 2.4.8 2.4-.5 0-.5-.5-.7-1-.4s-1-.3-1-1.3c0-1.3.9-2.1 2.5-2.4 1.3-.3 2.3-.2 2.2.2-.4 1.5 6.5 8.1 8.1 7.8 2.2-.4 4-8.7 2-10-2.2-1.4-2.8-1-2.8 2.2 0 1.6-.2 3-.5 3-.2 0-2.3-2-4.6-4.5-4.2-4.5-6.6-5.6-7.3-3.3m142 46.5c-.3.3-.6 1.2-.6 2 0 1.9 11.9 13.5 13 12.8.6-.4.7-2.4.4-4.7-.5-2.9-.3-4.2.7-4.9 1-.6.7-.8-1-.6-1.4 0-2.6 1-2.9 2-.6 2.2-2.1 2.2-3.8 0-1.9-2.5-1.7-3.3.8-3.4 1.7-.1 1.9-.2.6-.6-1-.2-1.8-.8-1.8-1.3 0-1 4-.2 5.5 1 .6.5 1.7.5 2.4 0 .9-.5.3-.9-1.7-1.3l-5.6-1.3c-1.5-.3-2.5-.2-2.4.2.3 1-.5 1.4-2.3 1.4-.5 0-.7-.4-.4-1 .7-1.1.2-1.3-.8-.3M203 160c0 .6.5 1 1 1s1-.5 1-1-.5-1-1-1-1 .5-1 1m-5.3 6c.6 2.2 2.3 3.8 2.3 2.1 0-1.7-1.2-4.1-2-4.1-.5 0-.6 1-.3 2m-25.2 3c.5 1.7.4 2-.5 1.5s-1-.4-.6.4c.4.6 1.2.9 1.7.6 1.2-.8 1.1-3.2-.2-4-.8-.5-.9 0-.4 1.5m-97.4 1.6c-1.1.8-2.1 2.4-2.1 3.5 0 2.3 3.4 5.9 5.5 5.9 2.5 0 6.5-5 6.5-8.1V169l-2.2 2.2-2.1 2.1-1.7-2c-1.6-2-2-2-3.9-.7m93 2.8c0 2.2.2 2.7 1 1.9.8-.8.8-1.6 0-3-1-1.6-1-1.4-1 1.1m8.4-1.4c-.4.6.3 2.2 1.6 3.6 2.8 3 2.2 3.7-1.8 2.2-3-1.1-6.3-.6-6.3 1a47 47 0 0 0 5.8 7c4.8 5.5 6 6.2 7 5 1-1.2.6-2-2-4.4-1.8-1.6-2.6-2.1-1.9-1.1.9 1 1 1.7.3 1.7-2 0-3.2-3.6-2-5.3 1.1-1.4 1.8-1.5 4.8-.4 4.9 1.7 6.1 2.7 5.3 4-.4.7 0 .6 1-.2 1.5-1.2 1.2-1.9-4-7.5-6.2-6.8-6.8-7.2-7.8-5.6m-133.8.7c-.6 1 1.2 10.3 1.9 10.3.2 0 .1-1.9-.2-4.2-.5-3-.4-4 .5-3.4.7.5 1 1.5.7 2.3-.3.8-.1 1.1.5.8.6-.4 1 0 .7 1.2-.2 1 .2 1.7 1 1.6.6-.2 1.6.6 2.2 1.7 1 2-.3 3-1.5 1-.3-.5-1.2-1-1.8-1-.7 0 .1.9 1.7 2 4.7 3 4.9 1.4.4-5.3-5.2-7.8-5.5-8-6.1-7m130.8 8.3c-.3.6-.2 1 .4 1s1.3-.5 1.6-1c.3-.6.2-1-.4-1s-1.3.5-1.6 1m-16.8 6.4c-2 1.3-3.4 2.6-3 3 .4.4 0 .4-1 0-1-.3-1.7-.4-1.7 0 0 1.4 5.5 13.3 6.8 14.6.8.8 1.2 1 .8.3-.9-1.6 1.4-2.9 2.4-1.3.5.8 1 .9 1.4.2.7-1.2-3.3-4.4-4.4-3.7-1 .6-2-3.1-1.2-4 .3-.2 1 0 1.6.4 1.6 1.4 5.3-1.6 3.9-3-1.2-1.2-3.6-.3-2.8 1.1.3.5-.4.8-1.5.7-3-.2-2.5-3.5 1-5.5 2.9-1.6 3.8-3.6 2.2-4.6-.4-.2-2.4.6-4.5 1.8m24.2 1c.6.7.7 1.7.3 2.1-.4.5-.1.5.6 0 1-.5 1-1 .1-2-.6-.9-1.4-1.5-1.6-1.5-.3 0 0 .6.6 1.3m-24.1.4c-1 .2-1.8.9-1.8 1.4 0 1.4 1.6 1 3-.6.7-.8 1-1.4.9-1.4l-2.1.6M131 195c-1.8.7-2.2 1.4-1.7 3.2.3 1.2.6 3 .6 4s.5 1.5 1 1.2c.6-.3 1-.2 1 .4 0 .5-.6 1.2-1.2 1.5-1 .5-1 .7 0 1.2.6.3 1.2 1.7 1.2 3s.4 2.4.8 2.4c.5 0 .7-1.4.4-3-.3-2.4 0-3 1.4-3 1.2-.1 1.4-.4.6-.7-1-.4-.9-.8.5-1.9 2.4-1.8 3.8-1.8 2.3.1-1 1.3-1 1.4.3 1 2-.8 3-3.5 1.4-3.5-.8 0-.7-.3.2-1 1.2-.7 1.3-1.3.3-3.4-1.2-2.8-4.5-3.3-9-1.5m58.8 2c0 .5-.4.8-.8.5a28 28 0 0 0-7.7 6.4l-6.8 6.9 4.8-1.3c4.5-1 5.2-1.8 8.7-7.4 2-3.4 3.3-6.2 2.8-6.2-.6 0-1 .5-1 1m-57 3c0 3.5 1.2 3.8 4.1.9 1.7-1.7 1.9-2.3.8-3-3-1.9-4.9-1-4.9 2.1m30.4-.6c-1.4 1.1-1.6 1.8-.8 2.6 1.6 1.6 5.5-.5 4.8-2.5-.8-1.9-1.5-1.9-4 0m19.7 3.9c-5.1 5.2-5.2 5.3-2.2 4.8 2.3-.3 3.7-1.5 5.7-4.9 1.4-2.4 2.4-4.6 2.2-4.9-.2-.2-2.8 2-5.7 5m0 1c-1.6 1.7-1.8 2.3-.6 2.3.8 0 1.3-.3 1-.5-.3-.3.2-1.4 1.2-2.4 2.4-2.7 1-2.2-1.5.5" fill="#1976D2" fill-rule="evenodd"/><path fill-opacity=".4" d="M104 23.6C91 36.6 77.8 49 74.5 51.2a88.2 88.2 0 0 0-22.7 21.2 87.7 87.7 0 0 0-18.5 52.1l-.6 12-3.7-16.2c-2-9-3.8-16.5-4.1-16.7-.3-.3-6 5-12.9 12L-.4 127.8 20 148.2c18.4 18.4 20.2 20 19.6 16.8-.6-2.8 0-2.1 2.8 3.3a96.2 96.2 0 0 0 41.2 41.4c30.1 15.2 68 12 95-8a91.1 91.1 0 0 0 37.3-67.4l.7-9.8 3.8 17c2.1 9.3 4 17.2 4.3 17.4.4.4 32.4-31.9 32.4-32.7 0-.2-.4 0-.9.2a312 312 0 0 1-25.2-24A316 316 0 0 0 206.2 79c-.2.5.1 2.7.7 4.7 1.5 5.3.6 5.4-2 .2-5.8-11.7-20.5-27-33.2-34.6a102.3 102.3 0 0 0-39.2-12.8l-5-.6 12-2.7c6.6-1.5 13.3-3 15-3.5 2.8-.7 2.8-.8-11.6-15.2A294 294 0 0 0 128 0a757 757 0 0 0-24 23.6M49.8 37.7l-11.7.4v9c0 5.6.4 8.9 1 8.9s7.8-1.6 16-3.6c14.7-3.6 15-3.7 17.2-7.3a418 418 0 0 1 3.6-5.9l1.4-2.2-7.8.2-19.6.5M197 39.2c0 .6 1.5 7.2 3.2 14.6l3.2 13.5 7.5 4.8c4.2 2.6 7.7 4.6 7.9 4.5.2-.2 0-9-.4-19.5l-.7-19.1h-10.4c-7.2 0-10.3.4-10.3 1.2m-74 15a69.7 69.7 0 0 0-3.6 9c-.5 2.4-.3 2.8 1.5 2.8 1.2 0 2.4-.7 2.7-1.5 1-2.3 5.4-2 5.4.5 0 1.4.7 2 2.1 2 2 0 2.1-.3 1.5-7.1-1-9.2-2-11.9-4.6-11.9-1.6 0-2.8 1.5-5 6.3m-20.7-3.5c-1 .6-1 1.7-.4 4 .7 2.4.6 3.2-.6 3.6-2 .8-3.3-.1-3.3-2.5 0-2-2.2-3.5-3.8-2.5-.6.3 0 4.2 1.1 9.1 1.9 7.5 2.4 8.5 4.2 8.3 1.5-.2 2-.9 1.6-2.8-.7-4.8-.6-5.4 1-5.8 1.2-.2 2 .6 2.4 2.7.5 2.4 1.2 3.1 3 3.1 1.4 0 2.5-.1 2.5-.3 0 0-1-4-2.4-8.6-2.3-8.5-3-9.7-5.3-8.3M126 57c0 1.1.5 2 1 2s1-.9 1-2-.5-2-1-2-1 .9-1 2m4 5.8c0 .4.5 1.4 1 2.2.8 1.2 1 1 1-.8 0-1.2-.4-2.2-1-2.2s-1 .3-1 .8m-54.2.9c-.9.2-2.1 1.7-2.8 3.3-2.3 5.5 2.7 14 8.1 14 3.2 0 5.9-3.1 5.9-6.7 0-3-2.8-3-3.2 0-.7 5-5.7 1.9-7.4-4.7-.5-2-.2-2.6 1-2.6.7 0 1.6.5 1.8 1.2.5 1.3 3.8.4 3.8-1.1 0-1.4-3-4.1-4.3-4-.7 0-2 .3-2.9.6M56.1 84.3c-2 2-1.2 4.3 4 11 4.2 5.5 5.4 6.5 6.6 5.5.8-.7 1.2-2 .9-3.4-.9-3.4.2-5.6 2.3-4.5 1.3.7 2 .5 2.9-1 1.6-2.4 1.5-2.6-.5-3.2-1-.3-4.8-1.6-8.4-3-5-2-7-2.3-7.8-1.4m5 5.5c0 1.7 1.7 3.4 2.3 2.3.4-.6.4-1.5.1-2.1-.7-1.2-2.5-1.3-2.5-.2m8 .2c0 .6.7 1 1.6 1s1.2-.5.9-1c-.3-.6-1-1-1.6-1s-.9.5-.9 1m-24 18.7c-1.6 4-.9 8.7 1.3 9.1 1.2.3 1.7-.3 1.7-2.2 0-1.4.2-2.6.5-2.6a25 25 0 0 1 4.1 4c4 4.4 6.8 5 8.4 2 1.6-3 .9-8.4-1.3-8.8-1.2-.3-1.7.3-1.7 2.2 0 3.6-1 3.3-5.7-1.9-2.2-2.5-4.5-4.5-5.2-4.5-.6 0-1.6 1.2-2.2 2.7m143.4 45c-2.8 1-1.1 5 4.4 10.5 3.2 3.2 6.3 5.8 7 5.8 1.6 0 2.6-3.1 1.3-4.4-2-2-1.1-4.6 1.4-4.6 2.1 0 4.4-2.6 3.2-3.7-.4-.4-8.7-2.6-13.6-3.6-1.4-.3-3-.3-3.8 0M201 158c0 .6 1 1 2.3 1 1.8 0 2-.2.7-1-2-1.3-3-1.3-3 0m-8 .6c0 .3.6 1.2 1.4 2 1 1 1.7 1 2.2.3.3-.6 0-1.5-.7-2-1.6-1-2.9-1.2-2.9-.3m-21 9.9c0 .8-.6 1.5-1.4 1.5-2 0-3.7 2.5-3 4.4.8 2 2.4 2.1 2.4.2 0-.8.9-1.8 2-2.1 2-.7 3-5.5 1-5.5-.6 0-1 .7-1 1.5m-97.4 1.6c-1.4 1.1-2.6 3-2.6 4 0 3 4.9 7 7.4 6.3 3.3-1 6.6-5.5 6.6-9.2 0-3.5-1-4-3-1.7-.7.8-2 1.5-2.7 1.5-1 0-1.3-.6-1-1.5.9-2.2-1.6-1.9-4.7.6m101.9 2c-.3.5.3 2.3 1.5 4l2.2 3-3.6-1.8c-3.3-1.5-3.8-1.6-5.2 0-2 1.8-1.5 2.7 5.4 10.1 2.6 2.9 5 4.5 5.8 4.2 2.1-.8 1.7-3-1.1-5.6-3.2-3-2.7-3.4 2-1.5 4 1.7 6.5 1.4 6.5-.7 0-1.4-11-12.8-12.2-12.8-.4 0-1 .5-1.3 1M37.3 191c.4 6.8.7 15.6.7 19.7v7.3h13.2l-.7-3.8c-.6-3.4-6-26.7-7-30.2-.3-.9-2-2.4-3.7-3.4l-3.1-1.9.6 12.3m118.5-3.4c-2.7 1.4-4.8 3-4.8 3.5a57 57 0 0 0 3.4 8.4l3.4 7.4 5.1-2.7c4.9-2.6 6.2-4.4 4.1-5.7-.5-.3-2.3.1-4 1-3.6 1.9-4 1.9-4 .1 0-.7 1.2-2.1 2.6-3 2-1.4 2.3-2 1.4-3.1-1-1.2-1.5-1.2-3.4 0-2.1 1.4-3.6 1.2-3.6-.6 0-.5 1.4-1.5 3-2.4 2.8-1.5 4-3.8 2.3-4.8-.5-.3-3 .6-5.6 2m-23.4 6.5c-3 1-3.3 1.5-3.3 5 0 5.7 2 12.8 3.6 12.8.9 0 1.4-1 1.4-2.7 0-2.2.8-3.1 3.3-4.3 2.5-1.2 3.3-2.2 3.5-4.8.2-2.2-.3-4-1.4-5.3-1.9-2.1-2.5-2.2-7.2-.7m1.5 3.5c-1 1-.8 5.3.2 5.3.5 0 1.4-.7 2-1.5 2-2.4-.1-6-2.2-3.8m67.5 7.5-16.3 4-3 4.7a18 18 0 0 0-2.5 4.9c.2.2 9 0 19.5-.4l19.1-.7v-8.4c0-4.5-.1-8.3-.2-8.2l-16.6 4.1m-42.7 9.7c-6 1.6-21.5 5.2-34.2 8.1-12.8 3-23.3 5.6-23.3 6 0 .3 6 6.5 13.3 13.8l13.3 13.3 22.5-22c12.3-12.1 21.7-22 20.9-22-.8 0-6.4 1.3-12.5 2.8" fill="#1976D2" fill-rule="evenodd"/><path d="M114 37a92.2 92.2 0 0 0-80 100.8 92.1 92.1 0 0 0 67.5 78.4c11.6 3.3 34.4 3.3 46 0a93 93 0 0 0 65.7-66.7c3.2-12.8 3.2-32.6 0-44.3a95 95 0 0 0-22.6-40A89.6 89.6 0 0 0 132.5 37c-6-.5-11.2-1-11.5-.9l-7 1m9.6 14.6c-1 2.1-2.6 6.1-3.6 9l-1.8 5.1 2.4.5c1.7.3 2.8-.1 3.5-1.4 1.3-2.5 3.5-2.4 4.2.1.3 1.4 1.4 2 3.2 2 2.4 0 2.6-.3 2.1-2.8l-1.1-7.7c-.9-6.5-2-8.5-4.9-8.5-1.6 0-2.7 1-4 3.7m-22-1c-.3.4-.4 2 0 3.8.4 2.4.2 3.4-1 3.8-1.1.5-1.8-.2-2.4-2.6-.7-2.4-1.3-3.1-2.8-2.9a7 7 0 0 0-2.3.8c-.2.1.7 4.4 1.9 9.4 1.7 7 2.6 9 3.7 8.6.8-.3 1.9-.6 2.4-.6s.8-1.9.7-4.1c-.4-5.2 1.7-6.3 2.6-1.4.7 3.5 1.9 4.2 4.5 2.6 2-1.3-2.7-18-5-18-.9-.1-1.9.2-2.2.6m24.9 6.2c-.4.7-.5 1.5-.2 1.8.9 1 1.9-.4 1.4-1.8-.4-1-.6-1-1.2 0m-53 8.3c-2.3 3.2-2 7.8.9 12C77 81 80.9 82.5 84 81c3.5-1.9 4-9.2.7-9.8-1.3-.3-1.7.3-1.7 2.7 0 1.7-.4 3.1-1 3.1-1.6 0-5-5.2-5-7.9 0-2.5.1-2.5 1.5-.6 1.4 1.8 1.6 1.8 3.2.2 2.4-2.3.6-5.1-3.5-5.5-2.2-.2-3.4.3-4.6 2m97.4 5.3c-1.3 1.4-3 2.3-3.8 2-1-.3-1.2.2-1 1.8.2 1.6-.2 2.2-1.5 2-1 0-1.6.5-1.5 1.5.2 1-.7 1.8-2.2 2.2-1.6.4-2 .8-1.3 1.3 1 .6 1 1.2 0 2.7-1 1.6-.7 2.3 1.3 4.5 2.4 2.5 5.4 3.3 6.5 1.5.3-.5 1.2-.7 2-.4.8.3 1.2-.1 1.1-1.3 0-1.2.5-1.7 1.7-1.5 1.3.2 1.7-.2 1.5-1.5-.2-1.2.3-1.8 1.7-1.8 1.1 0 1.9-.7 1.7-1.4-.2-.8.7-2.4 1.9-3.7 2.8-3 2-6.8-2-8.9-3.7-1.9-3.3-2-6.1 1m-1 3.5c0 .6.5 1 1 1s1-.5 1-1-.5-1-1-1-1 .5-1 1m-2.5 3c-1.1 1.8.1 2.2 1.5.5.8-1 .8-1.5.2-1.5-.6 0-1.4.5-1.7 1m7.5 2c0 .6.5.8 1 .5s1-.8 1-1-.5-.5-1-.5-1 .5-1 1m-11 1.4c-.6.9-.9 1.6-.4 1.6s.2.5-.6 1-1 1-.4 1c1.6 0 3.7-2.7 3.2-4-.2-.8-.8-.7-1.7.4m8 1c-.9 1-1 1.6-.3 1.6 1.2 0 2.6-1.9 2-2.6-.3-.2-1 .2-1.8 1M55 85.2c-1 1.8-.6 3 2.4 7.3 2 3 4.8 6.3 6.2 7.7 2.5 2.3 2.6 2.4 4 .5 1-1.3 1-2.3.4-3.1-1.4-1.7 0-4.7 1.8-4 1.7.6 4.2-1.1 4.2-3 0-1.2-13.7-7.5-16.4-7.5-.9 0-2 1-2.7 2.1m112.8.9c-1 1.1-1.3 2-.8 2 .4 0 1.6-.9 2.6-2s1.4-2 .9-2c-.5 0-1.7.9-2.7 2m-13 4.8-2.7 2.8 2.3 2.2c3 2.8 4.3 2.8 6.3-.4 1.7-2.4 1.6-2.6-.7-5l-2.5-2.4-2.7 2.8m-92.2.2c.3.6.8 1 1 1s.5-.5.5-1-.5-1-1-1-.8.5-.5 1m85.5 6.5-2.4 2.6 2.7 2.6 2.7 2.7 3-3 3.1-2.9-2.6-2.2c-3.3-2.9-3.6-2.9-6.5.2m-6 6-2.3 2.5 2.3 2.5c2.9 3 4.1 3.1 6.6.4 2-2.2 1.4-4.2-2.2-6.6-1.8-1.2-2.3-1-4.4 1.2m-96.8 3.8a14 14 0 0 0-1.3 5.6c-.3 3.7 0 4.5 1.6 5.1 2.6 1 3.5.4 3.5-2.3 0-1.8.5-1.6 4.3 2 2.3 2.4 4.8 4.3 5.5 4.3 1.8 0 3.2-3.5 3.2-7.8 0-3-.4-4-2-4.5-2.3-.6-3 0-3 2.7 0 1.7-.7 1.4-4.3-2.2-4.5-4.5-5.8-5-7.5-3m91.3 1.8c-1.8 2-1.8 2.1 1 5 3.5 3.6 2.2 4-1.5.5-2.6-2.5-2.7-2.5-4.4-.6-1.7 1.9-1.7 2 1.6 5l3.3 3 4.2-4.7 4.1-4.7-2.6-2.7c-3-3.3-3.4-3.4-5.7-.8m-30.5 8.7c-2.8 1-6.2 4.8-8.6 9.5-2.8 5.6-5.1 7.3-11.9 8.8a29.8 29.8 0 0 0-17.2 9.3c-9.5 10.4-7.8 20.5 6 34.3 12.3 12 23 15 32 8.8 6-4.2 10.2-10.9 11.6-18.5 1.8-9.7 2.7-11.2 8.7-14.8 6.3-3.7 9.4-8 9.4-12.9 0-3.4-2-8.4-4.7-11.4-.8-1-1.2-2-1-2.6.7-1-5.6-7.5-6.5-6.7-.3.3-2.7-.6-5.3-2-4.5-2.4-9.1-3-12.5-1.8m21 .9c-1.1 1.3-.9 2 1.8 4.7 3 3 3.3 3 4.9 1.4 1.6-1.6 1.5-1.8-1.2-4.7-3.3-3.4-3.8-3.6-5.5-1.4m-3 8.7c3.5 3.9 4 4.2 4 3 0-.5-1.7-2.1-3.8-3.7l-3.7-3 3.4 3.7m-3 4.2c2 1.9 3.7 3.2 4 3 .6-.7-5-6.5-6.3-6.5-.5 0 .5 1.6 2.4 3.5m-3 2.9c1.8 2 3.6 3.4 3.8 3 .7-.6-2.8-4.4-5.3-5.6-1.2-.7-.7.3 1.4 2.6m-5.9-.8c0 1 7 6.8 7.4 6.2.1-.1-1.5-1.8-3.6-3.7s-3.8-3-3.8-2.5m-9 3.9a13.7 13.7 0 0 0-2.9 6.1c-.9 5.4-4.7 7.9-12.4 8-3.4 0-7.3.2-8.6.3-1.4 0-4 1.8-6.3 4.1-2.8 3-3.8 3.6-3.8 2.3 0-1.5-.2-1.6-1-.3-1.2 1.8-1.2 9.8 0 12.5.7 1.7.9 1.6 1-1 .2-5.7 6-10.5 12.7-10.5 2 0 5-.7 6.7-1.5 3.5-1.8 3.3-1.8 4 0 .3 1 .1 2.6-.5 3.7-1 2-.9 2 3.3 1.3 2.3-.4 5.4-1.4 6.6-2.2 2.3-1.4 2.4-1.4 1.7.9-3 9.6-9.9 19.2-16 22-3 1.3-3.4 1.8-1.8 1.8 4.8 0 10.3-3.3 16.6-10 5.7-6.2 6.3-7.6 3.4-7.1-1.2.2-.9-.4 2.8-5.9 2-2.9 3.5-6 3.5-7s.9-2.4 2-3c2.3-1.2 5-6 5-8.7 0-1.7-.2-1.7-1.5.1-1.5 2-1.5 2-1.5 0 0-2.3-3.9-6.4-6-6.4-1.3 0-1.3-.2 0-1 1.1-.7.8-1-1.6-1-2 0-3.9.9-5.4 2.5m0 2.6c-.7 1.1-1 2.3-.7 2.5.2.2.9-.7 1.5-2.1 1.4-3 .7-3.3-.8-.4m-1 5.8c0 .6.4 1.3 1 1.6.6.3.7 0 .4-1-.7-1.7-1.4-2-1.4-.6m11.4 3.3-1.9 2.3 2.2-2c2.2-1.7 2.8-2.5 2-2.5-.2 0-1.2 1-2.3 2.2m-13.6 2.9c-1.9 3.2-1 3.7 3 1.6 2.2-1.3 2.2-1.4.5-3-1.7-1.5-2-1.4-3.5 1.4m87.2 3c-1.3 2.4 1.7 6.8 8.7 12.5 3.6 3 4.7 3.4 5.4 2.3 1.2-1.9 1.1-3.3-.1-4.5-1.6-1.6 0-4.6 2-4 1.1.5 2-.2 2.8-1.9 1-2.3 1-2.5-3-3.5l-7.8-2c-5.2-1.4-6.8-1.2-8 1m7.5 5c.3.6 1 1 1.6 1s.7-.5.4-1c-.3-.6-1-1-1.6-1s-.7.5-.4 1m-23.2 8c-.3 1.1-1.1 2-1.8 2-1.8 0-3 4-1.6 5.3 1.7 1.7 7.5-4.6 6.6-7.2-.8-2.7-2.5-2.7-3.2-.1m4.7 3.5c-1 1.3-1 2 1 4l2.2 2.4-3.6-1.1c-3-1-4-.9-5.3.5-1.5 1.5-1.1 2.1 4.7 8.7 6 6.8 6.3 7 8.2 5.4 1.8-1.7 1.8-1.8-1.4-5.1l-3.3-3.4 4.6 2c4.2 1.7 4.8 1.8 6.2.3 1.5-1.4 1-2.1-4.5-8.1a87.2 87.2 0 0 0-6.8-6.9c-.4-.1-1.3.4-2 1.3m-21.2 16L150 190l2 5.1a87.3 87.3 0 0 0 5.5 11.7c.6.6 10.5-4.8 10.5-5.7a9 9 0 0 0-.6-2.5c-.5-1.4-1-1.4-3.4 0-1.6.7-3.4 1.4-4 1.4-1.8 0-1-1.6 1.5-3 2.6-1.4 3.3-3.4 1.5-4.5-.5-.3-2 0-3 .5s-2.5.9-2.8.5c-.6-.6 1.4-2.5 4.6-4.4 1.5-.8.6-4.1-1.2-4-.6 0-3.2 1.1-5.8 2.5m-23.3 6.8-3 1.3.5 8.1c.4 4.5 1 8.5 1.3 8.8 1.2 1.3 3.7-.6 3.7-2.8 0-1.5 1-2.9 3-4 4.2-2.4 5.6-5.8 3.9-9.4-1.6-3.4-4.9-4-9.4-2m1.7 5.3c.2 1 1 1.8 1.8 1.8s1.6-.8 1.8-1.8c.2-1.2-.3-1.7-1.8-1.7s-2 .5-1.8 1.7" fill="#1976D2" fill-rule="evenodd"/></svg>